<?xml version="1.0" ?><svg id="Layer_1" style="enable-background:new 0 0 66 66;" version="1.1" viewBox="0 0 66 66" xml:space="preserve" xmlns="http://www.w3.org/2000/svg" xmlns:xlink="http://www.w3.org/1999/xlink"><g><path d="M20.25,14.82c-1.98,0-3.59,1.61-3.59,3.59S18.27,22,20.25,22s3.59-1.61,3.59-3.59S22.23,14.82,20.25,14.82z M20.25,21   c-1.43,0-2.59-1.16-2.59-2.59s1.16-2.59,2.59-2.59s2.59,1.16,2.59,2.59S21.68,21,20.25,21z"/><path d="M62.9,22.33l-7-7.93c-0.01-0.01-0.01-0.01-0.02-0.01c-0.03-0.03-0.06-0.05-0.09-0.07c-0.03-0.02-0.05-0.03-0.07-0.05   c-0.01,0-0.01-0.01-0.02-0.01L20.42,1.52c-0.15-0.05-0.44,0.01-0.51,0.11L6.52,14.33c-0.06,0.07-0.09,0.1-0.12,0.16   c-0.04,0.06-0.05,0.11-0.07,0.23l0.02,7.38c0,0.02,0.01,0.03,0.01,0.05v5.56h-1.7c-0.92,0-1.68,0.75-1.68,1.68v7.11   c0,0.92,0.75,1.68,1.68,1.68h4.74c0.92,0,1.68-0.75,1.68-1.68v-7.11c0-0.92-0.75-1.68-1.68-1.68H7.35V22.6h4.61v0.59   c0,1.23,1,2.23,2.23,2.23h0.78v34.1H13.4c-1.33,0-2.42,1.08-2.42,2.42v1.55H4.37c-0.28,0-0.5,0.22-0.5,0.5c0,0.28,0.22,0.5,0.5,0.5   h31.76c0.28,0,0.5-0.22,0.5-0.5c0-0.28-0.22-0.5-0.5-0.5h-6.6v-1.55c0-1.33-1.08-2.42-2.42-2.42h-1.58v-34.1h0.78   c1.23,0,2.23-1,2.23-2.23v-0.03h22.64v9.08h-0.31c-0.39,0-0.75,0.17-1,0.47s-0.35,0.69-0.28,1.07l0.9,4.89   c0.11,0.62,0.65,1.06,1.28,1.06h1.05v1.6c-1.24,0.23-2.19,1.33-2.19,2.64c0,1.48,1.21,2.69,2.69,2.69s2.69-1.21,2.69-2.69   c0-0.28-0.22-0.5-0.5-0.5s-0.5,0.22-0.5,0.5c0,0.93-0.76,1.69-1.69,1.69s-1.69-0.76-1.69-1.69s0.76-1.69,1.69-1.69   c0.28,0,0.5-0.22,0.5-0.5v-2.06h1.05c0.63,0,1.16-0.45,1.28-1.06l0.9-4.89c0.07-0.38-0.03-0.77-0.28-1.07   c-0.24-0.28-0.58-0.45-0.95-0.46v-9.08h6.71c0.2,0,0.38-0.12,0.46-0.29C63.06,22.69,63.03,22.48,62.9,22.33z M20.25,3.23l3.56,8.04   H16.7L20.25,3.23z M9.39,28.71c0.37,0,0.68,0.3,0.68,0.68v7.11c0,0.37-0.3,0.68-0.68,0.68H4.65c-0.37,0-0.68-0.3-0.68-0.68v-7.11   c0-0.37,0.3-0.68,0.68-0.68H9.39z M11.96,21.6H7.34v-6.39h4.62V21.6z M11.96,13.63v0.59H8.1L18.79,4.07l-3.24,7.32H14.2   C12.97,11.39,11.96,12.4,11.96,13.63z M27.11,60.53c0.78,0,1.42,0.64,1.42,1.42v1.55H11.98v-1.55c0-0.78,0.64-1.42,1.42-1.42H27.11   z M24.28,42.2l-4.03,3.65l-4.03-3.65l4.03-3.65L24.28,42.2z M16.22,33.56l4.03-3.65l4.03,3.65l-4.03,3.65L16.22,33.56z    M24.28,50.84l-4.03,3.65l-4.03-3.65l4.03-3.65L24.28,50.84z M24.29,59.49h-8.07l4.03-3.65L24.29,59.49z M21,55.16l3.53-3.19v6.39   L21,55.16z M21,46.52l3.53-3.19v6.39L21,46.52z M21,37.88l3.53-3.19v6.39L21,37.88z M21,29.24l3.53-3.19v6.39L21,29.24z    M20.25,28.57l-3.48-3.15h6.95L20.25,28.57z M19.51,29.24l-3.53,3.19v-6.39L19.51,29.24z M19.51,37.88l-3.53,3.19v-6.39   L19.51,37.88z M19.51,46.52l-3.53,3.19v-6.39L19.51,46.52z M19.51,55.16l-3.53,3.19v-6.39L19.51,55.16z M27.55,14.73v7.93v0.53   c0,0.68-0.55,1.23-1.23,1.23h-1.28h-9.55H14.2c-0.68,0-1.23-0.55-1.23-1.23V22.1v-7.39v-1.09c0-0.68,0.55-1.23,1.23-1.23h12.12   c0.68,0,1.23,0.55,1.23,1.23V14.73z M26.31,11.39h-1.36l-3.77-8.53l31.49,11.37H28.55v-0.61C28.55,12.4,27.54,11.39,26.31,11.39z    M53.15,15.23l-3.08,2.79l-3.08-2.79H53.15z M44.34,15.23l-3.08,2.79l-3.08-2.79H44.34z M35.53,15.23l-3.08,2.79l-3.08-2.79H35.53z    M28.55,15.84l3.16,2.86l-3.16,2.86V15.84z M29.37,22.16l3.08-2.79l3.08,2.79H29.37z M33.19,18.7l3.66-3.31l3.66,3.31l-3.66,3.31   L33.19,18.7z M38.17,22.16l3.08-2.79l3.08,2.79H38.17z M42,18.7l3.66-3.31l3.66,3.31l-3.66,3.31L42,18.7z M46.98,22.16l3.08-2.79   l3.08,2.79H46.98z M54.82,23.16v9.08h-2.64v-9.08H54.82z M56,33.35c0.03,0.04,0.09,0.13,0.06,0.25l-0.9,4.89   c-0.03,0.14-0.15,0.24-0.29,0.24h-3.1c-0.14,0-0.27-0.1-0.29-0.24l-0.9-4.89c-0.02-0.12,0.03-0.21,0.06-0.25   c0.03-0.04,0.11-0.11,0.23-0.11h4.9C55.89,33.24,55.97,33.31,56,33.35z M54.64,22.16l-3.83-3.46l3.83-3.47h0.66l6.12,6.93H54.64z"/></g></svg>