<?xml version="1.0" standalone="no"?>
<!DOCTYPE svg PUBLIC "-//W3C//DTD SVG 20010904//EN"
 "http://www.w3.org/TR/2001/REC-SVG-20010904/DTD/svg10.dtd">
<svg version="1.0" xmlns="http://www.w3.org/2000/svg"
 width="48.000000pt" height="48.000000pt" viewBox="0 0 48.000000 48.000000"
 preserveAspectRatio="xMidYMid meet">

<g transform="translate(0.000000,48.000000) scale(0.100000,-0.100000)"
fill="#000000" stroke="none">
<path d="M115 335 c-66 -62 -117 -117 -113 -120 4 -4 57 39 118 96 61 57 115
104 120 104 5 0 59 -47 120 -104 61 -57 114 -100 118 -96 6 6 -226 234 -238
234 -3 0 -59 -51 -125 -114z"/>
<path d="M310 410 c0 -5 16 -10 35 -10 33 0 35 -2 35 -35 0 -19 5 -35 10 -35
6 0 10 20 10 45 l0 45 -45 0 c-25 0 -45 -4 -45 -10z"/>
<path d="M60 110 l0 -110 70 0 70 0 0 65 0 65 40 0 40 0 0 -65 0 -65 70 0 70
0 0 105 c0 63 -4 105 -10 105 -6 0 -10 -38 -10 -95 l0 -95 -50 0 -50 0 0 65 0
65 -60 0 -60 0 0 -65 0 -65 -50 0 -50 0 0 100 c0 60 -4 100 -10 100 -6 0 -10
-43 -10 -110z"/>
</g>
</svg>
